{
  "asset": {
    "version": "2.0",
    "generator": "UltraRender Showcase Generator"
  },
  "scene": 0,
  "scenes": [
    {
      "name": "showcase",
      "nodes": [
        0,
        1,
        2,
        3,
        4,
        5,
        6,
        7,
        8,
        9,
        10
      ]
    }
  ],
  "nodes": [
    {
      "mesh": 0,
      "name": "floor"
    },
    {
      "mesh": 1,
      "name": "back_wall"
    },
    {
      "mesh": 2,
      "name": "left_wall"
    },
    {
      "mesh": 3,
      "name": "right_wall"
    },
    {
      "mesh": 4,
      "name": "ceiling"
    },
    {
      "mesh": 5,
      "name": "light_panel"
    },
    {
      "mesh": 6,
      "name": "metal_cube"
    },
    {
      "mesh": 7,
      "name": "white_sphere"
    },
    {
      "mesh": 8,
      "name": "red_cube"
    },
    {
      "mesh": 9,
      "name": "small_metal_sphere"
    },
    {
      "name": "camera",
      "camera": 0,
      "translation": [
        0.0,
        1.1,
        6.0
      ],
      "rotation": [
        -0.035,
        0,
        0,
        0.999
      ]
    }
  ],
  "meshes": [
    {
      "name": "floor",
      "primitives": [
        {
          "attributes": {
            "POSITION": 0,
            "NORMAL": 1,
            "TEXCOORD_0": 2
          },
          "indices": 3,
          "material": 0
        }
      ]
    },
    {
      "name": "back_wall",
      "primitives": [
        {
          "attributes": {
            "POSITION": 4,
            "NORMAL": 5,
            "TEXCOORD_0": 6
          },
          "indices": 7,
          "material": 0
        }
      ]
    },
    {
      "name": "left_wall",
      "primitives": [
        {
          "attributes": {
            "POSITION": 8,
            "NORMAL": 9,
            "TEXCOORD_0": 10
          },
          "indices": 11,
          "material": 0
        }
      ]
    },
    {
      "name": "right_wall",
      "primitives": [
        {
          "attributes": {
            "POSITION": 12,
            "NORMAL": 13,
            "TEXCOORD_0": 14
          },
          "indices": 15,
          "material": 0
        }
      ]
    },
    {
      "name": "ceiling",
      "primitives": [
        {
          "attributes": {
            "POSITION": 16,
            "NORMAL": 17,
            "TEXCOORD_0": 18
          },
          "indices": 19,
          "material": 0
        }
      ]
    },
    {
      "name": "light_panel",
      "primitives": [
        {
          "attributes": {
            "POSITION": 20,
            "NORMAL": 21,
            "TEXCOORD_0": 22
          },
          "indices": 23,
          "material": 1
        }
      ]
    },
    {
      "name": "metal_cube",
      "primitives": [
        {
          "attributes": {
            "POSITION": 24,
            "NORMAL": 25,
            "TEXCOORD_0": 26
          },
          "indices": 27,
          "material": 2
        }
      ]
    },
    {
      "name": "white_sphere",
      "primitives": [
        {
          "attributes": {
            "POSITION": 28,
            "NORMAL": 29,
            "TEXCOORD_0": 30
          },
          "indices": 31,
          "material": 3
        }
      ]
    },
    {
      "name": "red_cube",
      "primitives": [
        {
          "attributes": {
            "POSITION": 32,
            "NORMAL": 33,
            "TEXCOORD_0": 34
          },
          "indices": 35,
          "material": 4
        }
      ]
    },
    {
      "name": "small_metal_sphere",
      "primitives": [
        {
          "attributes": {
            "POSITION": 36,
            "NORMAL": 37,
            "TEXCOORD_0": 38
          },
          "indices": 39,
          "material": 5
        }
      ]
    }
  ],
  "materials": [
    {
      "name": "dark_grey",
      "pbrMetallicRoughness": {
        "baseColorFactor": [
          0.15,
          0.15,
          0.15,
          1.0
        ],
        "metallicFactor": 0.0,
        "roughnessFactor": 0.95
      }
    },
    {
      "name": "light_panel",
      "pbrMetallicRoughness": {
        "baseColorFactor": [
          1.0,
          1.0,
          1.0,
          1.0
        ],
        "metallicFactor": 0.0,
        "roughnessFactor": 1.0
      },
      "emissiveFactor": [
        12.0,
        11.0,
        10.0
      ]
    },
    {
      "name": "gold_metal",
      "pbrMetallicRoughness": {
        "baseColorFactor": [
          1.0,
          0.85,
          0.5,
          1.0
        ],
        "metallicFactor": 0.95,
        "roughnessFactor": 0.03
      }
    },
    {
      "name": "white_diffuse",
      "pbrMetallicRoughness": {
        "baseColorFactor": [
          0.85,
          0.85,
          0.85,
          1.0
        ],
        "metallicFactor": 0.0,
        "roughnessFactor": 0.6
      }
    },
    {
      "name": "red_matte",
      "pbrMetallicRoughness": {
        "baseColorFactor": [
          0.7,
          0.08,
          0.08,
          1.0
        ],
        "metallicFactor": 0.0,
        "roughnessFactor": 0.8
      }
    },
    {
      "name": "polished_metal",
      "pbrMetallicRoughness": {
        "baseColorFactor": [
          0.9,
          0.9,
          0.92,
          1.0
        ],
        "metallicFactor": 0.98,
        "roughnessFactor": 0.01
      }
    }
  ],
  "cameras": [
    {
      "name": "product_camera",
      "type": "perspective",
      "perspective": {
        "yfov": 0.698132,
        "aspectRatio": 1.6,
        "zfar": 100.0,
        "znear": 0.1
      }
    }
  ],
  "accessors": [
    {
      "bufferView": 0,
      "componentType": 5126,
      "count": 4,
      "type": "VEC3",
      "min": [
        -2.0,
        0.0,
        -2.5
      ],
      "max": [
        2.0,
        0.0,
        2.5
      ]
    },
    {
      "bufferView": 1,
      "componentType": 5126,
      "count": 4,
      "type": "VEC3"
    },
    {
      "bufferView": 2,
      "componentType": 5126,
      "count": 4,
      "type": "VEC2"
    },
    {
      "bufferView": 3,
      "componentType": 5123,
      "count": 6,
      "type": "SCALAR"
    },
    {
      "bufferView": 4,
      "componentType": 5126,
      "count": 4,
      "type": "VEC3",
      "min": [
        -2.0,
        0,
        -2.5
      ],
      "max": [
        2.0,
        2.0,
        -2.5
      ]
    },
    {
      "bufferView": 5,
      "componentType": 5126,
      "count": 4,
      "type": "VEC3"
    },
    {
      "bufferView": 6,
      "componentType": 5126,
      "count": 4,
      "type": "VEC2"
    },
    {
      "bufferView": 7,
      "componentType": 5123,
      "count": 6,
      "type": "SCALAR"
    },
    {
      "bufferView": 8,
      "componentType": 5126,
      "count": 4,
      "type": "VEC3",
      "min": [
        -2.0,
        0,
        -2.5
      ],
      "max": [
        -2.0,
        2.0,
        2.5
      ]
    },
    {
      "bufferView": 9,
      "componentType": 5126,
      "count": 4,
      "type": "VEC3"
    },
    {
      "bufferView": 10,
      "componentType": 5126,
      "count": 4,
      "type": "VEC2"
    },
    {
      "bufferView": 11,
      "componentType": 5123,
      "count": 6,
      "type": "SCALAR"
    },
    {
      "bufferView": 12,
      "componentType": 5126,
      "count": 4,
      "type": "VEC3",
      "min": [
        2.0,
        0,
        -2.5
      ],
      "max": [
        2.0,
        2.0,
        2.5
      ]
    },
    {
      "bufferView": 13,
      "componentType": 5126,
      "count": 4,
      "type": "VEC3"
    },
    {
      "bufferView": 14,
      "componentType": 5126,
      "count": 4,
      "type": "VEC2"
    },
    {
      "bufferView": 15,
      "componentType": 5123,
      "count": 6,
      "type": "SCALAR"
    },
    {
      "bufferView": 16,
      "componentType": 5126,
      "count": 4,
      "type": "VEC3",
      "min": [
        -2.0,
        2.0,
        -2.5
      ],
      "max": [
        2.0,
        2.0,
        2.5
      ]
    },
    {
      "bufferView": 17,
      "componentType": 5126,
      "count": 4,
      "type": "VEC3"
    },
    {
      "bufferView": 18,
      "componentType": 5126,
      "count": 4,
      "type": "VEC2"
    },
    {
      "bufferView": 19,
      "componentType": 5123,
      "count": 6,
      "type": "SCALAR"
    },
    {
      "bufferView": 20,
      "componentType": 5126,
      "count": 4,
      "type": "VEC3",
      "min": [
        -0.8,
        1.999,
        -1.0
      ],
      "max": [
        0.8,
        1.999,
        1.0
      ]
    },
    {
      "bufferView": 21,
      "componentType": 5126,
      "count": 4,
      "type": "VEC3"
    },
    {
      "bufferView": 22,
      "componentType": 5126,
      "count": 4,
      "type": "VEC2"
    },
    {
      "bufferView": 23,
      "componentType": 5123,
      "count": 6,
      "type": "SCALAR"
    },
    {
      "bufferView": 24,
      "componentType": 5126,
      "count": 20,
      "type": "VEC3",
      "min": [
        -0.7,
        0.0,
        -0.5
      ],
      "max": [
        -0.1,
        0.6,
        0.1
      ]
    },
    {
      "bufferView": 25,
      "componentType": 5126,
      "count": 20,
      "type": "VEC3"
    },
    {
      "bufferView": 26,
      "componentType": 5126,
      "count": 20,
      "type": "VEC2"
    },
    {
      "bufferView": 27,
      "componentType": 5123,
      "count": 30,
      "type": "SCALAR"
    },
    {
      "bufferView": 28,
      "componentType": 5126,
      "count": 435,
      "type": "VEC3",
      "min": [
        0.25,
        0.0,
        -0.55
      ],
      "max": [
        0.95,
        0.7,
        0.14999999999999997
      ]
    },
    {
      "bufferView": 29,
      "componentType": 5126,
      "count": 435,
      "type": "VEC3"
    },
    {
      "bufferView": 30,
      "componentType": 5126,
      "count": 435,
      "type": "VEC2"
    },
    {
      "bufferView": 31,
      "componentType": 5123,
      "count": 2352,
      "type": "SCALAR"
    },
    {
      "bufferView": 32,
      "componentType": 5126,
      "count": 20,
      "type": "VEC3",
      "min": [
        1.0,
        0.0,
        -0.8
      ],
      "max": [
        1.6,
        0.5,
        -0.2
      ]
    },
    {
      "bufferView": 33,
      "componentType": 5126,
      "count": 20,
      "type": "VEC3"
    },
    {
      "bufferView": 34,
      "componentType": 5126,
      "count": 20,
      "type": "VEC2"
    },
    {
      "bufferView": 35,
      "componentType": 5123,
      "count": 30,
      "type": "SCALAR"
    },
    {
      "bufferView": 36,
      "componentType": 5126,
      "count": 325,
      "type": "VEC3",
      "min": [
        -0.5,
        0.0,
        0.6000000000000001
      ],
      "max": [
        -0.09999999999999998,
        0.4,
        1.0
      ]
    },
    {
      "bufferView": 37,
      "componentType": 5126,
      "count": 325,
      "type": "VEC3"
    },
    {
      "bufferView": 38,
      "componentType": 5126,
      "count": 325,
      "type": "VEC2"
    },
    {
      "bufferView": 39,
      "componentType": 5123,
      "count": 1728,
      "type": "SCALAR"
    }
  ],
  "bufferViews": [
    {
      "buffer": 0,
      "byteOffset": 0,
      "byteLength": 48,
      "target": 34962
    },
    {
      "buffer": 0,
      "byteOffset": 48,
      "byteLength": 48,
      "target": 34962
    },
    {
      "buffer": 0,
      "byteOffset": 96,
      "byteLength": 32,
      "target": 34962
    },
    {
      "buffer": 0,
      "byteOffset": 128,
      "byteLength": 12,
      "target": 34963
    },
    {
      "buffer": 0,
      "byteOffset": 140,
      "byteLength": 48,
      "target": 34962
    },
    {
      "buffer": 0,
      "byteOffset": 188,
      "byteLength": 48,
      "target": 34962
    },
    {
      "buffer": 0,
      "byteOffset": 236,
      "byteLength": 32,
      "target": 34962
    },
    {
      "buffer": 0,
      "byteOffset": 268,
      "byteLength": 12,
      "target": 34963
    },
    {
      "buffer": 0,
      "byteOffset": 280,
      "byteLength": 48,
      "target": 34962
    },
    {
      "buffer": 0,
      "byteOffset": 328,
      "byteLength": 48,
      "target": 34962
    },
    {
      "buffer": 0,
      "byteOffset": 376,
      "byteLength": 32,
      "target": 34962
    },
    {
      "buffer": 0,
      "byteOffset": 408,
      "byteLength": 12,
      "target": 34963
    },
    {
      "buffer": 0,
      "byteOffset": 420,
      "byteLength": 48,
      "target": 34962
    },
    {
      "buffer": 0,
      "byteOffset": 468,
      "byteLength": 48,
      "target": 34962
    },
    {
      "buffer": 0,
      "byteOffset": 516,
      "byteLength": 32,
      "target": 34962
    },
    {
      "buffer": 0,
      "byteOffset": 548,
      "byteLength": 12,
      "target": 34963
    },
    {
      "buffer": 0,
      "byteOffset": 560,
      "byteLength": 48,
      "target": 34962
    },
    {
      "buffer": 0,
      "byteOffset": 608,
      "byteLength": 48,
      "target": 34962
    },
    {
      "buffer": 0,
      "byteOffset": 656,
      "byteLength": 32,
      "target": 34962
    },
    {
      "buffer": 0,
      "byteOffset": 688,
      "byteLength": 12,
      "target": 34963
    },
    {
      "buffer": 0,
      "byteOffset": 700,
      "byteLength": 48,
      "target": 34962
    },
    {
      "buffer": 0,
      "byteOffset": 748,
      "byteLength": 48,
      "target": 34962
    },
    {
      "buffer": 0,
      "byteOffset": 796,
      "byteLength": 32,
      "target": 34962
    },
    {
      "buffer": 0,
      "byteOffset": 828,
      "byteLength": 12,
      "target": 34963
    },
    {
      "buffer": 0,
      "byteOffset": 840,
      "byteLength": 240,
      "target": 34962
    },
    {
      "buffer": 0,
      "byteOffset": 1080,
      "byteLength": 240,
      "target": 34962
    },
    {
      "buffer": 0,
      "byteOffset": 1320,
      "byteLength": 160,
      "target": 34962
    },
    {
      "buffer": 0,
      "byteOffset": 1480,
      "byteLength": 60,
      "target": 34963
    },
    {
      "buffer": 0,
      "byteOffset": 1540,
      "byteLength": 5220,
      "target": 34962
    },
    {
      "buffer": 0,
      "byteOffset": 6760,
      "byteLength": 5220,
      "target": 34962
    },
    {
      "buffer": 0,
      "byteOffset": 11980,
      "byteLength": 3480,
      "target": 34962
    },
    {
      "buffer": 0,
      "byteOffset": 15460,
      "byteLength": 4704,
      "target": 34963
    },
    {
      "buffer": 0,
      "byteOffset": 20164,
      "byteLength": 240,
      "target": 34962
    },
    {
      "buffer": 0,
      "byteOffset": 20404,
      "byteLength": 240,
      "target": 34962
    },
    {
      "buffer": 0,
      "byteOffset": 20644,
      "byteLength": 160,
      "target": 34962
    },
    {
      "buffer": 0,
      "byteOffset": 20804,
      "byteLength": 60,
      "target": 34963
    },
    {
      "buffer": 0,
      "byteOffset": 20864,
      "byteLength": 3900,
      "target": 34962
    },
    {
      "buffer": 0,
      "byteOffset": 24764,
      "byteLength": 3900,
      "target": 34962
    },
    {
      "buffer": 0,
      "byteOffset": 28664,
      "byteLength": 2600,
      "target": 34962
    },
    {
      "buffer": 0,
      "byteOffset": 31264,
      "byteLength": 3456,
      "target": 34963
    }
  ],
  "buffers": [
    {
      "uri": "data:application/octet-stream;base64,",
      "byteLength": 34720
    }
  ]
}